<?xml version="1.0" encoding="UTF-8"?>
<svg width="358px" height="71px" viewBox="0 0 358 71" version="1.1" xmlns="http://www.w3.org/2000/svg" xmlns:xlink="http://www.w3.org/1999/xlink">
    <!-- Generator: Sketch 48.1 (47250) - http://www.bohemiancoding.com/sketch -->
    <title>logo</title>
    <desc>Created with Sketch.</desc>
    <defs></defs>
    <g id="1280---Home-Copy-11" stroke="none" stroke-width="1" fill="none" fill-rule="evenodd" transform="translate(-384.000000, -112.000000)">
        <path d="M422.224513,144.104228 C421.561322,142.32713 420.930542,140.250719 420.592713,139.097296 C420.248652,140.251971 419.597926,142.330887 418.878638,144.11049 L416.609824,149.902651 L424.41853,149.902651 L422.224513,144.104228 Z M422.640878,134.509904 L432.510215,160.129416 L428.300445,160.129416 L425.68383,153.23017 L415.295907,153.23017 L412.558373,160.129416 L408.468276,160.129416 L418.778909,134.338331 L422.574808,134.338331 L422.640878,134.509904 Z M525.022937,152.839433 C525.022937,147.999065 522.12459,145.22008 517.072118,145.22008 L512.043332,145.22008 C509.345688,145.22008 508.090361,144.001535 508.090361,141.382851 C508.090361,138.691532 509.37062,137.543118 512.371188,137.543118 L516.826538,137.543118 C519.485537,137.543118 520.734631,138.429789 521.00265,140.509957 L521.032568,140.742896 L525.002991,140.742896 L524.975566,140.449844 C524.602832,136.57254 521.916408,134.30076 517.399974,134.037765 L512.697797,134.010213 C507.201535,134.010213 504.174789,136.628896 504.174789,141.382851 C504.174789,146.067927 507.043217,148.754238 512.043332,148.754238 L517.112009,148.754238 C519.809653,148.754238 521.066227,150.052934 521.066227,152.839433 C521.066227,156.527631 518.073139,156.924629 516.7854,156.924629 L512.411079,156.924629 C510.718195,156.924629 508.62266,156.402395 508.242446,153.906443 L508.208788,153.677262 L504.195981,153.677262 L504.224653,153.972819 C504.609852,157.818814 507.332428,160.16323 511.709243,160.431235 L516.622095,160.457534 C521.88275,160.457534 525.022937,157.60967 525.022937,152.839433 Z M456.386356,140.022789 C456.786514,140.785476 457.396102,141.898823 458.101678,143.044732 L468.647919,160.00418 L468.726455,160.129416 L472.941211,160.129416 L472.941211,134.338331 L469.180217,134.338331 L469.180217,154.284656 C468.783798,153.529483 468.204129,152.456212 467.6282,151.508176 L457.040821,134.464819 L456.962285,134.338331 L452.625362,134.338331 L452.625362,160.129416 L456.386356,160.129416 L456.386356,140.022789 Z M438.931454,160.129416 L442.979166,160.129416 L442.979166,134.338331 L438.931454,134.338331 L438.931454,160.129416 Z M487.050237,160.129416 L491.015673,160.129416 L491.015673,137.872489 L499.092398,137.872489 L499.092398,134.338331 L478.973511,134.338331 L478.973511,137.872489 L487.050237,137.872489 L487.050237,160.129416 Z M396.898576,145.22008 L391.869789,145.22008 C389.172146,145.22008 387.916819,144.001535 387.916819,141.382851 C387.916819,138.691532 389.195831,137.543118 392.197645,137.543118 L396.651749,137.543118 C399.311995,137.543118 400.561089,138.429789 400.829108,140.509957 L400.859026,140.742896 L404.829449,140.742896 L404.800777,140.449844 C404.42929,136.57254 401.741619,134.30076 397.226432,134.037765 L392.524255,134.010213 C387.026746,134.010213 384,136.628896 384,141.382851 C384,146.067927 386.868428,148.754238 391.869789,148.754238 L396.938467,148.754238 C399.636111,148.754238 400.892684,150.052934 400.892684,152.839433 C400.892684,156.527631 397.89835,156.924629 396.611858,156.924629 L392.237537,156.924629 C390.544653,156.924629 388.447871,156.402395 388.068904,153.906443 L388.033999,153.677262 L384.022439,153.677262 L384.051111,153.972819 C384.43631,157.818814 387.158886,160.16323 391.5357,160.431235 L396.447307,160.457534 C401.707961,160.457534 404.848148,157.60967 404.848148,152.839433 C404.848148,147.999065 401.951048,145.22008 396.898576,145.22008 Z M642.026374,137.872489 L650.103099,137.872489 L650.103099,160.129416 L654.068535,160.129416 L654.068535,137.872489 L662.14526,137.872489 L662.14526,134.338331 L642.026374,134.338331 L642.026374,137.872489 Z M676.86138,144.104228 C676.198189,142.32713 675.567409,140.250719 675.22958,139.097296 C674.884272,140.251971 674.234793,142.330887 673.514258,144.11049 L671.246691,149.902651 L679.055397,149.902651 L676.86138,144.104228 Z M677.276498,134.509904 L687.145835,160.129416 L682.936065,160.129416 L680.31945,153.23017 L669.934021,153.23017 L667.193993,160.129416 L663.105143,160.129416 L673.415776,134.338331 L677.211675,134.338331 L677.276498,134.509904 Z M734.049182,145.22008 L729.021641,145.22008 C726.323998,145.22008 725.067424,144.001535 725.067424,141.382851 C725.067424,138.691532 726.347683,137.543118 729.348251,137.543118 L733.803601,137.543118 C736.463847,137.543118 737.712941,138.429789 737.98096,140.509957 L738.010878,140.742896 L741.981301,140.742896 L741.952629,140.449844 C741.581142,136.57254 738.893471,134.30076 734.378284,134.037765 L729.67486,134.010213 C724.178598,134.010213 721.151852,136.628896 721.151852,141.382851 C721.151852,146.067927 724.02028,148.754238 729.021641,148.754238 L734.090319,148.754238 C736.787963,148.754238 738.044536,150.052934 738.044536,152.839433 C738.044536,156.527631 735.050202,156.924629 733.76371,156.924629 L729.389389,156.924629 C727.696505,156.924629 725.599723,156.402395 725.220756,153.906443 L725.185851,153.677262 L721.173044,153.677262 L721.202963,153.972819 C721.586916,157.818814 724.309491,160.16323 728.686306,160.431235 L733.599159,160.457534 C738.859813,160.457534 742,157.60967 742,152.839433 C742,147.997813 739.101654,145.22008 734.049182,145.22008 Z M629.794729,145.22008 L624.767189,145.22008 C622.069545,145.22008 620.812972,144.001535 620.812972,141.382851 C620.812972,138.691532 622.094477,137.543118 625.095045,137.543118 L629.549148,137.543118 C632.209394,137.543118 633.458488,138.429789 633.726507,140.509957 L633.756425,140.742896 L637.726848,140.742896 L637.699423,140.449844 C637.326689,136.57254 634.639019,134.30076 630.123831,134.037765 L625.421654,134.010213 C619.925392,134.010213 616.898646,136.628896 616.898646,141.382851 C616.898646,146.067927 619.765827,148.754238 624.767189,148.754238 L629.835867,148.754238 C632.53351,148.754238 633.790084,150.052934 633.790084,152.839433 C633.790084,156.527631 630.795749,156.924629 629.509257,156.924629 L625.134936,156.924629 C623.443299,156.924629 621.34527,156.402395 620.966303,153.906443 L620.931399,153.677262 L616.918591,153.677262 L616.94851,153.972819 C617.332463,157.818814 620.055038,160.16323 624.4331,160.431235 L629.345953,160.457534 C634.60536,160.457534 637.745547,157.60967 637.745547,152.839433 C637.745547,147.997813 634.848447,145.22008 629.794729,145.22008 Z M697.535004,147.069815 L704.422472,147.069815 C708.394142,147.069815 710.165561,146.408569 710.165561,142.491189 C710.165561,138.952022 708.822972,137.872489 704.422472,137.872489 L697.535004,137.872489 L697.535004,147.069815 Z M710.534555,152.820648 L715.124538,160.129416 L710.611844,160.129416 L706.445705,153.475632 C704.982196,151.147496 704.434938,150.60272 702.419185,150.60272 L697.535004,150.60272 L697.535004,160.129416 L693.569568,160.129416 L693.569568,134.338331 L704.912386,134.338331 C711.111731,134.338331 714.253164,137.01337 714.253164,142.285802 C714.253164,146.542571 712.355838,149.126188 708.457718,150.166899 C709.184486,150.744237 709.765402,151.565784 710.534555,152.820648 Z M575.442944,165.29665 L566.477392,165.29665 L560.311706,159.102482 L560.311706,157.325384 L553.197356,155.409275 L553.197356,162.063059 L563.530429,172.443864 L578.389907,172.443864 L588.72298,162.063059 L588.72298,154.045455 L549.805356,143.569471 L549.805356,132.896866 C549.805356,132.017709 550.153158,131.174872 550.771472,130.553702 L561.159394,120.117792 C561.777708,119.496622 562.61667,119.147214 563.491784,119.147214 L578.428552,119.147214 C579.303666,119.147214 580.142628,119.496622 580.760942,120.117792 L591.148864,130.553702 C591.767178,131.174872 592.11498,132.017709 592.11498,132.896866 L592.11498,140.502443 L599.229329,142.4173 L599.229329,130.916886 C599.229329,129.410298 598.633454,127.965075 597.573844,126.90057 L584.397276,113.663133 C583.337665,112.598628 581.899088,112 580.399428,112 L561.520908,112 C560.021248,112 558.582671,112.598628 557.52306,113.663133 L544.346492,126.90057 C543.286882,127.965075 542.691007,129.410298 542.691007,130.916886 L542.691007,149.053552 L581.273295,159.439366 L575.442944,165.29665 Z M599.229329,145.945196 L599.229329,164.083114 C599.229329,165.589702 598.633454,167.033673 597.573844,168.09943 L584.397276,181.335615 C583.337665,182.401372 581.899088,183 580.399428,183 L561.520908,183 C560.021248,183 558.582671,182.401372 557.52306,181.335615 L544.346492,168.09943 C543.286882,167.033673 542.691007,165.589702 542.691007,164.083114 L542.691007,152.581447 L549.805356,154.496305 L549.805356,162.101882 C549.805356,162.981038 550.153158,163.823876 550.771472,164.445046 L561.159394,174.882208 C561.777708,175.503378 562.61667,175.851534 563.491784,175.851534 L578.428552,175.851534 C579.303666,175.851534 580.142628,175.503378 580.760942,174.882208 L591.148864,164.445046 C591.767178,163.823876 592.11498,162.981038 592.11498,162.101882 L592.11498,151.430529 L553.197356,140.954545 L553.197356,132.935689 L563.530429,122.554883 L578.389907,122.554883 L588.72298,132.935689 L588.72298,139.589473 L581.60863,137.674616 L581.60863,135.896266 L575.442944,129.702097 L566.477392,129.702097 L560.647041,135.559381 L599.229329,145.945196 Z" id="logo" fill="#FFFFFF"></path>
    </g>
</svg>